<svg width="22" height="23" viewBox="0 0 22 23" fill="none" xmlns="http://www.w3.org/2000/svg">
<path fill-rule="evenodd" clip-rule="evenodd" d="M5.15625 1.875H8.25C9.16168 1.875 10.036 2.23716 10.6807 2.88182C11.3253 3.52648 11.6875 4.40082 11.6875 5.3125V7.03125C11.6875 7.98092 12.4575 8.75 13.4062 8.75H15.125C16.0367 8.75 16.911 9.11216 17.5557 9.75682C18.2003 10.4015 18.5625 11.2758 18.5625 12.1875V19.4062C18.5625 20.355 17.7925 21.125 16.8438 21.125H5.15625C4.70041 21.125 4.26324 20.9439 3.94091 20.6216C3.61858 20.2993 3.4375 19.8621 3.4375 19.4062V3.59375C3.4375 2.64408 4.2075 1.875 5.15625 1.875ZM11.4858 11.0142C11.3569 10.8854 11.1822 10.8131 11 10.8131C10.8178 10.8131 10.6431 10.8854 10.5142 11.0142L7.76417 13.7642C7.69662 13.8271 7.64244 13.903 7.60487 13.9873C7.56729 14.0717 7.54709 14.1627 7.54546 14.255C7.54383 14.3473 7.56081 14.439 7.59539 14.5246C7.62997 14.6102 7.68143 14.688 7.74672 14.7533C7.812 14.8186 7.88976 14.87 7.97537 14.9046C8.06097 14.9392 8.15267 14.9562 8.24498 14.9545C8.33729 14.9529 8.42833 14.9327 8.51266 14.8951C8.59699 14.8576 8.67289 14.8034 8.73583 14.7358L10.3125 13.1592V17C10.3125 17.1823 10.3849 17.3572 10.5139 17.4861C10.6428 17.6151 10.8177 17.6875 11 17.6875C11.1823 17.6875 11.3572 17.6151 11.4861 17.4861C11.6151 17.3572 11.6875 17.1823 11.6875 17V13.1592L13.2642 14.7358C13.3271 14.8034 13.403 14.8576 13.4873 14.8951C13.5717 14.9327 13.6627 14.9529 13.755 14.9545C13.8473 14.9562 13.939 14.9392 14.0246 14.9046C14.1102 14.87 14.188 14.8186 14.2533 14.7533C14.3186 14.688 14.37 14.6102 14.4046 14.5246C14.4392 14.439 14.4562 14.3473 14.4545 14.255C14.4529 14.1627 14.4327 14.0717 14.3951 13.9873C14.3576 13.903 14.3034 13.8271 14.2358 13.7642L11.4858 11.0142Z" fill="white"/>
<path d="M13.0621 5.31287C13.0637 4.15654 12.6473 3.03859 11.8896 2.16504C13.4235 2.56834 14.8227 3.37181 15.9442 4.49327C17.0656 5.61473 17.8691 7.01394 18.2724 8.54779C17.3988 7.79015 16.2809 7.37377 15.1246 7.37537H13.4058C13.3146 7.37537 13.2272 7.33916 13.1627 7.27469C13.0983 7.21022 13.0621 7.12279 13.0621 7.03162V5.31287Z" fill="white"/>
</svg>
