<svg width="23" height="23" viewBox="0 0 23 23" fill="none" xmlns="http://www.w3.org/2000/svg">
<path d="M18.6539 2.875C19.9929 2.875 21.0832 3.77941 21.0832 4.88907V7.57005C21.0832 8.68679 19.9929 9.58333 18.6539 9.58333H4.3458C2.99726 9.58333 1.9165 8.68679 1.9165 7.57005V4.88907C1.9165 3.77941 2.99726 2.875 4.3458 2.875H18.6539Z" fill="#C5CCD3"/>
<path d="M18.6539 13.417C19.9929 13.417 21.0832 14.3214 21.0832 15.4311V18.112C21.0832 19.2288 19.9929 20.1253 18.6539 20.1253H4.3458C2.99726 20.1253 1.9165 19.2288 1.9165 18.112V15.4311C1.9165 14.3214 2.99726 13.417 4.3458 13.417H18.6539Z" fill="#C5CCD3"/>
</svg>
