<svg width="23" height="23" viewBox="0 0 23 23" fill="none" xmlns="http://www.w3.org/2000/svg">
<path d="M7.58984 12.9088C8.94109 12.9088 10.024 14.0022 10.024 15.3631V18.63C10.024 19.9813 8.94109 21.0834 7.58984 21.0834H4.35067C3.009 21.0834 1.9165 19.9813 1.9165 18.63V15.3631C1.9165 14.0022 3.009 12.9088 4.35067 12.9088H7.58984ZM18.6491 12.9088C19.9908 12.9088 21.0833 14.0022 21.0833 15.3631V18.63C21.0833 19.9813 19.9908 21.0834 18.6491 21.0834H15.4099C14.0587 21.0834 12.9758 19.9813 12.9758 18.63V15.3631C12.9758 14.0022 14.0587 12.9088 15.4099 12.9088H18.6491ZM7.58984 1.91699C8.94109 1.91699 10.024 3.01908 10.024 4.37128V7.63824C10.024 8.99908 8.94109 10.0916 7.58984 10.0916H4.35067C3.009 10.0916 1.9165 8.99908 1.9165 7.63824V4.37128C1.9165 3.01908 3.009 1.91699 4.35067 1.91699H7.58984ZM18.6491 1.91699C19.9908 1.91699 21.0833 3.01908 21.0833 4.37128V7.63824C21.0833 8.99908 19.9908 10.0916 18.6491 10.0916H15.4099C14.0587 10.0916 12.9758 8.99908 12.9758 7.63824V4.37128C12.9758 3.01908 14.0587 1.91699 15.4099 1.91699H18.6491Z" fill="black"/>
</svg>
