<svg width="28" height="28" viewBox="0 0 28 28" fill="none" xmlns="http://www.w3.org/2000/svg">
<path d="M19.8682 4.31557L21.589 5.68258C22.2947 6.2344 22.7652 6.9618 22.9261 7.72682C23.1118 8.56835 22.9137 9.39482 22.3566 10.1097L13.2725 22.1992C12.8021 22.8012 12.1088 23.1398 11.366 23.1524L6.11383 24.3692C5.89098 24.3692 5.70528 24.2187 5.65576 24.0055L5.89392 18.8131C5.73297 18.0731 5.89392 17.3081 6.36436 16.7186L12.4649 8.4793C12.5887 8.32881 12.8115 8.30498 12.9601 8.4166L16.018 10.8496C16.216 11.0127 16.4884 11.1004 16.7732 11.0628C17.3798 10.9876 17.7883 10.4358 17.7264 9.84631C17.6893 9.54532 17.5407 9.29449 17.3426 9.10637C17.2807 9.0562 14.3714 6.72351 14.3714 6.72351C14.1857 6.57302 14.1486 6.29711 14.2971 6.11024L15.4485 4.61657C16.5132 3.24956 18.3702 3.12415 19.8682 4.31557Z" fill="#A9B0B8"/>
</svg>
