<svg width="22" height="23" viewBox="0 0 22 23" fill="none" xmlns="http://www.w3.org/2000/svg">
<path d="M11 14.25C11.7293 14.25 12.4288 13.9603 12.9445 13.4445C13.4603 12.9288 13.75 12.2293 13.75 11.5C13.75 10.7707 13.4603 10.0712 12.9445 9.55546C12.4288 9.03973 11.7293 8.75 11 8.75C10.2707 8.75 9.57118 9.03973 9.05546 9.55546C8.53973 10.0712 8.25 10.7707 8.25 11.5C8.25 12.2293 8.53973 12.9288 9.05546 13.4445C9.57118 13.9603 10.2707 14.25 11 14.25V14.25Z" fill="black"/>
<path fill-rule="evenodd" clip-rule="evenodd" d="M1.21262 10.9931C2.57662 6.89467 6.4422 3.9375 11.0008 3.9375C15.5566 3.9375 19.4204 6.89192 20.7862 10.9867C20.8962 11.3185 20.8962 11.676 20.7862 12.0069C19.4231 16.1053 15.5566 19.0625 10.9989 19.0625C6.44312 19.0625 2.57845 16.1081 1.21353 12.0133C1.1033 11.6822 1.1033 11.3242 1.21353 10.9931H1.21262ZM15.8124 11.5C15.8124 12.7764 15.3053 14.0004 14.4028 14.903C13.5003 15.8055 12.2762 16.3125 10.9999 16.3125C9.72351 16.3125 8.49943 15.8055 7.59691 14.903C6.6944 14.0004 6.18737 12.7764 6.18737 11.5C6.18737 10.2236 6.6944 8.99957 7.59691 8.09705C8.49943 7.19453 9.72351 6.6875 10.9999 6.6875C12.2762 6.6875 13.5003 7.19453 14.4028 8.09705C15.3053 8.99957 15.8124 10.2236 15.8124 11.5V11.5Z" fill="black"/>
</svg>
