<svg width="22" height="23" viewBox="0 0 22 23" fill="none" xmlns="http://www.w3.org/2000/svg">
<path d="M11.0007 2.33301C16.0698 2.33301 20.1673 6.44059 20.1673 11.4997C20.1673 16.5606 16.0698 20.6663 11.0007 20.6663C5.94065 20.6663 1.83398 16.5606 1.83398 11.4997C1.83398 6.44059 5.94065 2.33301 11.0007 2.33301ZM11.0007 14.1864C10.5607 14.1864 10.2032 14.5439 10.2032 14.9839C10.2032 15.4239 10.5607 15.7906 11.0098 15.7906C11.4498 15.7906 11.8073 15.4239 11.8073 14.9839C11.8073 14.5439 11.4498 14.1864 11.0007 14.1864ZM11.0007 7.21884C10.5607 7.21884 10.194 7.58642 10.194 8.02551V12.0772C10.194 12.5181 10.5607 12.8747 11.0007 12.8747C11.4407 12.8747 11.7982 12.5181 11.7982 12.0772V8.02551C11.7982 7.58642 11.4407 7.21884 11.0007 7.21884Z" fill="#50565C"/>
</svg>
