<svg width="22" height="23" viewBox="0 0 22 23" fill="none" xmlns="http://www.w3.org/2000/svg">
<path fill-rule="evenodd" clip-rule="evenodd" d="M8.25 1.875H5.15625C4.20658 1.875 3.4375 2.645 3.4375 3.59375V19.4063C3.4375 20.355 4.2075 21.125 5.15625 21.125H16.8438C17.7925 21.125 18.5625 20.355 18.5625 19.4063V12.1875C18.5625 11.2758 18.2003 10.4015 17.5557 9.75682C16.911 9.11216 16.0367 8.75 15.125 8.75H13.4063C12.9504 8.75 12.5132 8.56892 12.1909 8.24659C11.8686 7.92426 11.6875 7.48709 11.6875 7.03125V5.3125C11.6875 4.40082 11.3253 3.52648 10.6807 2.88182C10.036 2.23716 9.16168 1.875 8.25 1.875V1.875ZM14.3092 11.8997C14.3642 11.8264 14.404 11.7428 14.4262 11.654C14.4485 11.5651 14.4527 11.4726 14.4387 11.3821C14.4248 11.2915 14.3928 11.2047 14.3448 11.1266C14.2968 11.0486 14.2336 10.981 14.1591 10.9277C14.0845 10.8744 14.0001 10.8366 13.9107 10.8164C13.8213 10.7962 13.7288 10.7941 13.6386 10.8102C13.5484 10.8263 13.4623 10.8602 13.3854 10.91C13.3085 10.9599 13.2424 11.0246 13.1908 11.1003L10.2245 15.2528L8.73583 13.7642C8.60551 13.6427 8.43313 13.5766 8.25502 13.5798C8.07691 13.5829 7.90698 13.6551 7.78101 13.781C7.65505 13.907 7.5829 14.0769 7.57976 14.255C7.57661 14.4331 7.64273 14.6055 7.76417 14.7358L9.82667 16.7983C9.89724 16.8689 9.98232 16.9232 10.076 16.9575C10.1697 16.9918 10.2697 17.0054 10.3691 16.9972C10.4685 16.989 10.565 16.9592 10.6518 16.91C10.7386 16.8608 10.8136 16.7933 10.8717 16.7122L14.3092 11.8997Z" fill="white"/>
<path d="M11.8906 2.16504C12.6483 3.03859 13.0646 4.15654 13.063 5.31287V7.03162C13.063 7.22137 13.217 7.37537 13.4068 7.37537H15.1255C16.2819 7.37377 17.3998 7.79015 18.2734 8.54779C17.8701 7.01394 17.0666 5.61473 15.9451 4.49327C14.8237 3.37181 13.4245 2.56834 11.8906 2.16504V2.16504Z" fill="white"/>
</svg>
