<svg width="18" height="21" viewBox="0 0 18 21" fill="none" xmlns="http://www.w3.org/2000/svg">
<path fill-rule="evenodd" clip-rule="evenodd" d="M13.125 3.60479V3.81287C14.3157 3.92176 15.5016 4.07833 16.6798 4.2822C16.7688 4.29761 16.8539 4.33039 16.9301 4.37867C17.0064 4.42695 17.0725 4.48978 17.1245 4.56358C17.1765 4.63738 17.2135 4.7207 17.2333 4.80878C17.2531 4.89687 17.2553 4.98799 17.2399 5.07695C17.2245 5.16591 17.1917 5.25097 17.1435 5.32726C17.0952 5.40355 17.0323 5.46958 16.9585 5.52159C16.8847 5.5736 16.8014 5.61056 16.7133 5.63037C16.6253 5.65018 16.5341 5.65244 16.4452 5.63704L16.2536 5.60495L15.3323 17.5858C15.2792 18.2766 14.9673 18.9218 14.459 19.3926C13.9507 19.8634 13.2834 20.1249 12.5906 20.125H5.41034C4.71752 20.1249 4.05024 19.8634 3.54192 19.3926C3.0336 18.9218 2.72171 18.2766 2.66859 17.5858L1.74642 5.60495L1.55484 5.63704C1.46588 5.65244 1.37476 5.65018 1.28667 5.63037C1.19859 5.61056 1.11527 5.5736 1.04147 5.52159C0.892423 5.41656 0.791208 5.25661 0.760089 5.07695C0.728971 4.89729 0.770497 4.71262 0.875533 4.56358C0.980569 4.41454 1.14051 4.31332 1.32017 4.2822C2.49833 4.07808 3.68424 3.92151 4.87501 3.81287V3.60479C4.87501 2.17112 5.98692 0.946452 7.45634 0.899702C8.48549 0.866766 9.51544 0.866766 10.5446 0.899702C12.014 0.946452 13.125 2.17112 13.125 3.60479ZM7.50034 2.27379C8.50017 2.24181 9.50076 2.24181 10.5006 2.27379C11.1908 2.29579 11.75 2.87695 11.75 3.60479V3.70837C9.91836 3.59713 8.08165 3.59713 6.25001 3.70837V3.60479C6.25001 2.87695 6.80826 2.29579 7.50034 2.27379ZM7.17492 7.72337C7.17143 7.63308 7.15019 7.54437 7.11242 7.4623C7.07464 7.38022 7.02107 7.30639 6.95476 7.24502C6.88845 7.18365 6.81071 7.13594 6.72596 7.10461C6.64121 7.07329 6.55112 7.05896 6.46084 7.06245C6.37055 7.06594 6.28184 7.08718 6.19977 7.12496C6.11769 7.16273 6.04386 7.2163 5.98249 7.28261C5.92112 7.34892 5.87341 7.42667 5.84208 7.51142C5.81076 7.59616 5.79643 7.68625 5.79992 7.77654L6.11801 16.0265C6.12506 16.2087 6.2042 16.3807 6.33803 16.5046C6.4043 16.5659 6.482 16.6136 6.56669 16.6449C6.65138 16.6762 6.74141 16.6905 6.83163 16.687C6.92185 16.6835 7.01051 16.6623 7.09253 16.6245C7.17455 16.5868 7.24833 16.5332 7.30966 16.467C7.37099 16.4007 7.41866 16.323 7.44996 16.2383C7.48127 16.1536 7.49558 16.0636 7.49209 15.9734L7.17492 7.72337ZM12.1983 7.77654C12.205 7.68452 12.1931 7.59209 12.1634 7.50475C12.1336 7.41742 12.0866 7.33697 12.0251 7.26819C11.9636 7.19941 11.8889 7.14372 11.8054 7.10442C11.7219 7.06513 11.6314 7.04304 11.5392 7.03947C11.447 7.0359 11.355 7.05092 11.2688 7.08365C11.1825 7.11637 11.1037 7.16612 11.0371 7.22994C10.9704 7.29375 10.9173 7.37033 10.8809 7.4551C10.8445 7.53987 10.8255 7.63111 10.8251 7.72337L10.507 15.9734C10.5 16.1557 10.5656 16.3334 10.6896 16.4673C10.8135 16.6012 10.9856 16.6804 11.1679 16.6875C11.3503 16.6945 11.5279 16.6288 11.6618 16.5049C11.7958 16.3809 11.875 16.2089 11.882 16.0265L12.1983 7.77654V7.77654Z" fill="#50565C"/>
</svg>
