<svg width="18" height="19" viewBox="0 0 18 19" fill="none" xmlns="http://www.w3.org/2000/svg">
<path fill-rule="evenodd" clip-rule="evenodd" d="M0.0625 9.5C0.0625 4.56375 4.06375 0.5625 9 0.5625C13.9363 0.5625 17.9375 4.56375 17.9375 9.5C17.9375 14.4363 13.9363 18.4375 9 18.4375C4.06375 18.4375 0.0625 14.4363 0.0625 9.5ZM10.4923 5.90942C9.6765 5.19717 8.3235 5.19717 7.50858 5.90942C7.37135 6.02952 7.19202 6.09018 7.01005 6.07806C6.82809 6.06594 6.65839 5.98203 6.53829 5.84479C6.41819 5.70755 6.35753 5.52823 6.36965 5.34626C6.38177 5.1643 6.46568 4.9946 6.60292 4.8745C7.93575 3.7085 10.0643 3.7085 11.3971 4.8745C12.784 6.08817 12.784 8.09933 11.3971 9.313C11.1651 9.51525 10.9071 9.68544 10.6298 9.819C10.0102 10.1197 9.6875 10.5285 9.6875 10.875V11.5625C9.6875 11.7448 9.61507 11.9197 9.48614 12.0486C9.3572 12.1776 9.18234 12.25 9 12.25C8.81766 12.25 8.6428 12.1776 8.51386 12.0486C8.38493 11.9197 8.3125 11.7448 8.3125 11.5625V10.875C8.3125 9.70258 9.28417 8.94358 10.0313 8.5815C10.1981 8.50083 10.353 8.39908 10.4923 8.27808C11.2532 7.61167 11.2532 6.57583 10.4923 5.90942V5.90942ZM9 15C9.18234 15 9.3572 14.9276 9.48614 14.7986C9.61507 14.6697 9.6875 14.4948 9.6875 14.3125C9.6875 14.1302 9.61507 13.9553 9.48614 13.8264C9.3572 13.6974 9.18234 13.625 9 13.625C8.81766 13.625 8.6428 13.6974 8.51386 13.8264C8.38493 13.9553 8.3125 14.1302 8.3125 14.3125C8.3125 14.4948 8.38493 14.6697 8.51386 14.7986C8.6428 14.9276 8.81766 15 9 15Z" fill="#50565C"/>
</svg>
