<svg width="67" height="83" viewBox="0 0 67 83" fill="none" xmlns="http://www.w3.org/2000/svg">
<rect x="0.5" y="3.5" width="63" height="79" rx="4.5" fill="white" stroke="#EAEDEF"/>
<path d="M37.8677 33.3156L39.5886 34.6826C40.2942 35.2344 40.7647 35.9618 40.9256 36.7268C41.1113 37.5683 40.9132 38.3948 40.3561 39.1097L31.272 51.1992C30.8016 51.8012 30.1083 52.1398 29.3655 52.1524L24.1133 53.3692C23.8905 53.3692 23.7048 53.2187 23.6553 53.0055L23.8934 47.8131C23.7325 47.0731 23.8934 46.3081 24.3639 45.7186L30.4644 37.4793C30.5882 37.3288 30.811 37.305 30.9596 37.4166L34.0175 39.8496C34.2156 40.0127 34.4879 40.1004 34.7727 40.0628C35.3793 39.9876 35.7878 39.4358 35.7259 38.8463C35.6888 38.5453 35.5402 38.2945 35.3422 38.1064C35.2803 38.0562 32.3709 35.7235 32.3709 35.7235C32.1852 35.573 32.1481 35.2971 32.2966 35.1102L33.448 33.6166C34.5127 32.2496 36.3697 32.1241 37.8677 33.3156Z" fill="#A9B0B8"/>
<path d="M47.2852 14.7139C47.2852 17.4753 49.5237 19.7139 52.2852 19.7139H63.7137L47.2852 3.2853V14.7139Z" fill="#A6BDEB"/>
<path d="M67 15C67 6.71573 60.2843 0 52 0H44L67 23V15Z" fill="white"/>
</svg>
