<svg width="22" height="23" viewBox="0 0 22 23" fill="none" xmlns="http://www.w3.org/2000/svg">
<path fill-rule="evenodd" clip-rule="evenodd" d="M11 2.5625C6.06375 2.5625 2.0625 6.56375 2.0625 11.5C2.0625 16.4363 6.06375 20.4375 11 20.4375C15.9363 20.4375 19.9375 16.4363 19.9375 11.5C19.9375 6.56375 15.9363 2.5625 11 2.5625ZM11.6875 6C11.6875 5.81766 11.6151 5.6428 11.4861 5.51386C11.3572 5.38493 11.1823 5.3125 11 5.3125C10.8177 5.3125 10.6428 5.38493 10.5139 5.51386C10.3849 5.6428 10.3125 5.81766 10.3125 6V11.5C10.3125 11.8795 10.6205 12.1875 11 12.1875H15.125C15.3073 12.1875 15.4822 12.1151 15.6111 11.9861C15.7401 11.8572 15.8125 11.6823 15.8125 11.5C15.8125 11.3177 15.7401 11.1428 15.6111 11.0139C15.4822 10.8849 15.3073 10.8125 15.125 10.8125H11.6875V6Z" fill="black"/>
</svg>
