<svg width="22" height="23" viewBox="0 0 22 23" fill="none" xmlns="http://www.w3.org/2000/svg">
<path fill-rule="evenodd" clip-rule="evenodd" d="M15.125 4.60479V4.81287C16.3157 4.92176 17.5016 5.07833 18.6798 5.2822C18.7688 5.29761 18.8539 5.33039 18.9301 5.37867C19.0064 5.42695 19.0725 5.48978 19.1245 5.56358C19.1765 5.63738 19.2135 5.7207 19.2333 5.80878C19.2531 5.89687 19.2553 5.98799 19.2399 6.07695C19.2245 6.16591 19.1917 6.25097 19.1435 6.32726C19.0952 6.40355 19.0323 6.46958 18.9585 6.52159C18.8847 6.5736 18.8014 6.61056 18.7133 6.63037C18.6253 6.65018 18.5341 6.65244 18.4452 6.63704L18.2536 6.60495L17.3323 18.5858C17.2792 19.2766 16.9673 19.9218 16.459 20.3926C15.9507 20.8634 15.2834 21.1249 14.5906 21.125H7.41034C6.71752 21.1249 6.05024 20.8634 5.54192 20.3926C5.0336 19.9218 4.72171 19.2766 4.66859 18.5858L3.74642 6.60495L3.55484 6.63704C3.46588 6.65244 3.37476 6.65018 3.28667 6.63037C3.19859 6.61056 3.11527 6.5736 3.04147 6.52159C2.89242 6.41656 2.79121 6.25661 2.76009 6.07695C2.72897 5.89729 2.7705 5.71262 2.87553 5.56358C2.98057 5.41454 3.14051 5.31332 3.32017 5.2822C4.49833 5.07808 5.68424 4.92151 6.87501 4.81287V4.60479C6.87501 3.17112 7.98692 1.94645 9.45634 1.8997C10.4855 1.86677 11.5154 1.86677 12.5446 1.8997C14.014 1.94645 15.125 3.17112 15.125 4.60479ZM9.50034 3.27379C10.5002 3.24181 11.5008 3.24181 12.5006 3.27379C13.1908 3.29579 13.75 3.87695 13.75 4.60479V4.70837C11.9184 4.59713 10.0817 4.59713 8.25001 4.70837V4.60479C8.25001 3.87695 8.80826 3.29579 9.50034 3.27379ZM9.17492 8.72337C9.17143 8.63308 9.15019 8.54437 9.11242 8.4623C9.07464 8.38022 9.02107 8.30639 8.95476 8.24502C8.88845 8.18365 8.81071 8.13594 8.72596 8.10461C8.64121 8.07329 8.55112 8.05896 8.46084 8.06245C8.37055 8.06594 8.28184 8.08718 8.19977 8.12496C8.11769 8.16273 8.04386 8.2163 7.98249 8.28261C7.92112 8.34892 7.87341 8.42667 7.84208 8.51142C7.81076 8.59616 7.79643 8.68625 7.79992 8.77654L8.11801 17.0265C8.12506 17.2087 8.2042 17.3807 8.33803 17.5046C8.4043 17.5659 8.482 17.6136 8.56669 17.6449C8.65138 17.6762 8.74141 17.6905 8.83163 17.687C8.92185 17.6835 9.01051 17.6623 9.09253 17.6245C9.17455 17.5868 9.24833 17.5332 9.30966 17.467C9.37099 17.4007 9.41866 17.323 9.44996 17.2383C9.48127 17.1536 9.49558 17.0636 9.49209 16.9734L9.17492 8.72337ZM14.1983 8.77654C14.205 8.68452 14.1931 8.59209 14.1634 8.50475C14.1336 8.41742 14.0866 8.33697 14.0251 8.26819C13.9636 8.19941 13.8889 8.14372 13.8054 8.10442C13.7219 8.06513 13.6314 8.04304 13.5392 8.03947C13.447 8.0359 13.355 8.05092 13.2688 8.08365C13.1825 8.11637 13.1037 8.16612 13.0371 8.22994C12.9704 8.29375 12.9173 8.37033 12.8809 8.4551C12.8445 8.53987 12.8255 8.63111 12.8251 8.72337L12.507 16.9734C12.5 17.1557 12.5656 17.3334 12.6896 17.4673C12.8135 17.6012 12.9856 17.6804 13.1679 17.6875C13.3503 17.6945 13.5279 17.6288 13.6618 17.5049C13.7958 17.3809 13.875 17.2089 13.882 17.0265L14.1983 8.77654V8.77654Z" fill="black"/>
</svg>
