<svg width="22" height="23" viewBox="0 0 22 23" fill="none" xmlns="http://www.w3.org/2000/svg">
<path d="M15.6106 3.89081L16.9627 4.96489C17.5172 5.39846 17.8868 5.96999 18.0133 6.57107C18.1592 7.23227 18.0036 7.88165 17.5658 8.44332L10.4283 17.9422C10.0587 18.4152 9.51394 18.6813 8.9303 18.6911L4.80363 19.6472C4.62854 19.6472 4.48263 19.529 4.44373 19.3615L4.63085 15.2817C4.50439 14.7003 4.63085 14.0992 5.00048 13.6361L9.79373 7.16231C9.891 7.04406 10.0661 7.02534 10.1828 7.11304L12.5855 9.0247C12.7411 9.1528 12.9551 9.22178 13.1788 9.19222C13.6555 9.13309 13.9765 8.69952 13.9278 8.23639C13.8986 7.99989 13.7819 7.80281 13.6263 7.65501C13.5776 7.61559 11.2917 5.78276 11.2917 5.78276C11.1458 5.66451 11.1166 5.44773 11.2334 5.3009L12.138 4.1273C12.9745 3.05323 14.4336 2.95469 15.6106 3.89081Z" fill="black"/>
</svg>
