<svg width="22" height="23" viewBox="0 0 22 23" fill="none" xmlns="http://www.w3.org/2000/svg">
<path d="M11 14.25C11.7293 14.25 12.4288 13.9603 12.9445 13.4445C13.4603 12.9288 13.75 12.2293 13.75 11.5C13.75 10.7707 13.4603 10.0712 12.9445 9.55546C12.4288 9.03973 11.7293 8.75 11 8.75C10.2707 8.75 9.57118 9.03973 9.05546 9.55546C8.53973 10.0712 8.25 10.7707 8.25 11.5C8.25 12.2293 8.53973 12.9288 9.05546 13.4445C9.57118 13.9603 10.2707 14.25 11 14.25V14.25Z" fill="white"/>
<path fill-rule="evenodd" clip-rule="evenodd" d="M1.21274 10.9931C2.57674 6.89467 6.44232 3.9375 11.0009 3.9375C15.5567 3.9375 19.4205 6.89192 20.7863 10.9867C20.8963 11.3185 20.8963 11.676 20.7863 12.0069C19.4232 16.1053 15.5567 19.0625 10.9991 19.0625C6.44324 19.0625 2.57857 16.1081 1.21365 12.0133C1.10342 11.6822 1.10342 11.3242 1.21365 10.9931H1.21274ZM15.8125 11.5C15.8125 12.7764 15.3055 14.0004 14.4029 14.903C13.5004 15.8055 12.2763 16.3125 11 16.3125C9.72363 16.3125 8.49956 15.8055 7.59704 14.903C6.69452 14.0004 6.18749 12.7764 6.18749 11.5C6.18749 10.2236 6.69452 8.99957 7.59704 8.09705C8.49956 7.19453 9.72363 6.6875 11 6.6875C12.2763 6.6875 13.5004 7.19453 14.4029 8.09705C15.3055 8.99957 15.8125 10.2236 15.8125 11.5V11.5Z" fill="white"/>
</svg>
