<svg width="23" height="23" viewBox="0 0 23 23" fill="none" xmlns="http://www.w3.org/2000/svg">
<path fill-rule="evenodd" clip-rule="evenodd" d="M15.0938 1.4375C14.1504 1.4374 13.2185 1.64362 12.3633 2.0417C11.5081 2.43978 10.7502 3.02008 10.143 3.74195C9.5357 4.46381 9.09366 5.30975 8.84782 6.22048C8.60199 7.13122 8.55832 8.08469 8.71988 9.01408C8.78408 9.38783 8.68921 9.70121 8.50808 9.88233L2.27892 16.1105C1.74006 16.6497 1.43741 17.3809 1.4375 18.1432V20.8437C1.4375 21.2405 1.7595 21.5625 2.15625 21.5625H5.75C5.94062 21.5625 6.12344 21.4868 6.25823 21.352C6.39303 21.2172 6.46875 21.0344 6.46875 20.8437V19.4062H7.90625C8.09687 19.4062 8.27969 19.3305 8.41448 19.1957C8.54927 19.0609 8.625 18.8781 8.625 18.6875V17.25H10.0625C10.2531 17.2498 10.4358 17.174 10.5704 17.0392L13.1177 14.4919C13.2998 14.3108 13.6131 14.2159 13.9859 14.2811C14.8685 14.4331 15.7729 14.4003 16.6421 14.1846C17.5113 13.9689 18.3262 13.5751 19.0353 13.0281C19.7444 12.4811 20.3321 11.7928 20.7614 11.0069C21.1906 10.2209 21.452 9.35437 21.529 8.46215C21.6059 7.56992 21.4968 6.67143 21.2085 5.82358C20.9202 4.97573 20.4589 4.19697 19.854 3.53664C19.2491 2.8763 18.5136 2.34876 17.6942 1.98742C16.8748 1.62609 15.9893 1.43883 15.0938 1.4375V1.4375ZM15.0938 4.3125C14.9031 4.3125 14.7203 4.38823 14.5855 4.52302C14.4507 4.65781 14.375 4.84063 14.375 5.03125C14.375 5.22187 14.4507 5.40469 14.5855 5.53948C14.7203 5.67427 14.9031 5.75 15.0938 5.75C15.6656 5.75 16.2141 5.97718 16.6184 6.38155C17.0228 6.78593 17.25 7.33438 17.25 7.90625C17.25 8.09687 17.3257 8.27969 17.4605 8.41448C17.5953 8.54927 17.7781 8.625 17.9688 8.625C18.1594 8.625 18.3422 8.54927 18.477 8.41448C18.6118 8.27969 18.6875 8.09687 18.6875 7.90625C18.6875 6.95313 18.3089 6.03904 17.6349 5.36508C16.961 4.69113 16.0469 4.3125 15.0938 4.3125Z" fill="black"/>
</svg>
