<svg width="27" height="30" viewBox="0 0 27 30" fill="none" xmlns="http://www.w3.org/2000/svg">
<g filter="url(#filter0_d_3199_2181)">
<path d="M9.1875 3.23437C9.1875 2.24154 9.9925 1.4375 10.9844 1.4375H11.3437C12.2969 1.4375 13.211 1.81613 13.8849 2.49008C14.5589 3.16404 14.9375 4.07813 14.9375 5.03125V6.82812C14.9375 7.82096 15.7425 8.625 16.7344 8.625H18.5312C19.4844 8.625 20.3985 9.00363 21.0724 9.67758C21.7464 10.3515 22.125 11.2656 22.125 12.2187V15.4531C22.125 16.445 21.32 17.25 20.3281 17.25H10.9844C10.5078 17.25 10.0508 17.0607 9.71379 16.7237C9.37681 16.3867 9.1875 15.9297 9.1875 15.4531V3.23437Z" fill="white"/>
<path d="M16.375 5.03115C16.3767 3.82226 15.9414 2.65349 15.1493 1.74023C16.7529 2.16187 18.2157 3.00186 19.3881 4.17429C20.5605 5.34673 21.4005 6.80954 21.8222 8.41311C20.9089 7.62103 19.7401 7.18572 18.5312 7.1874H16.7344C16.6391 7.1874 16.5477 7.14954 16.4803 7.08214C16.4129 7.01475 16.375 6.92334 16.375 6.82803V5.03115ZM6.67187 5.7499H7.75V15.453C7.75 16.3108 8.09076 17.1335 8.69733 17.7401C9.30389 18.3466 10.1266 18.6874 10.9844 18.6874H17.8125V19.7655C17.8125 20.7574 17.0075 21.5624 16.0156 21.5624H6.67187C6.19531 21.5624 5.73827 21.3731 5.40129 21.0361C5.06431 20.6991 4.875 20.2421 4.875 19.7655V7.54678C4.875 6.55394 5.68 5.7499 6.67187 5.7499Z" fill="white"/>
</g>
<defs>
<filter id="filter0_d_3199_2181" x="-2" y="0" width="31" height="31" filterUnits="userSpaceOnUse" color-interpolation-filters="sRGB">
<feFlood flood-opacity="0" result="BackgroundImageFix"/>
<feColorMatrix in="SourceAlpha" type="matrix" values="0 0 0 0 0 0 0 0 0 0 0 0 0 0 0 0 0 0 127 0" result="hardAlpha"/>
<feOffset dy="4"/>
<feGaussianBlur stdDeviation="2"/>
<feComposite in2="hardAlpha" operator="out"/>
<feColorMatrix type="matrix" values="0 0 0 0 0 0 0 0 0 0 0 0 0 0 0 0 0 0 0.25 0"/>
<feBlend mode="normal" in2="BackgroundImageFix" result="effect1_dropShadow_3199_2181"/>
<feBlend mode="normal" in="SourceGraphic" in2="effect1_dropShadow_3199_2181" result="shape"/>
</filter>
</defs>
</svg>
