<svg width="23" height="23" viewBox="0 0 23 23" fill="none" xmlns="http://www.w3.org/2000/svg">
<path d="M11.0142 1.91699C13.3933 1.91699 15.3337 3.82408 15.3337 6.17199V10.7624H9.48337C9.0641 10.7624 8.73258 11.0882 8.73258 11.5003C8.73258 11.9028 9.0641 12.2382 9.48337 12.2382H15.3337V16.8191C15.3337 19.167 13.3933 21.0837 10.9947 21.0837H6.24621C3.85734 21.0837 1.91699 19.1766 1.91699 16.8287V6.18158C1.91699 3.82408 3.86709 1.91699 6.25596 1.91699H11.0142ZM17.768 8.19427C18.0555 7.89718 18.5251 7.89718 18.8126 8.18468L21.6109 10.9734C21.7547 11.1172 21.8314 11.2993 21.8314 11.5005C21.8314 11.6922 21.7547 11.8839 21.6109 12.018L18.8126 14.8068C18.6689 14.9505 18.4772 15.0272 18.2951 15.0272C18.1034 15.0272 17.9118 14.9505 17.768 14.8068C17.4805 14.5193 17.4805 14.0497 17.768 13.7622L19.3014 12.2384H15.3339V10.7626H19.3014L17.768 9.23885C17.4805 8.95135 17.4805 8.48177 17.768 8.19427Z" fill="black"/>
</svg>
