<svg width="25" height="25" viewBox="0 0 25 25" fill="none" xmlns="http://www.w3.org/2000/svg">
<path d="M8 3.875C8 2.839 8.84 2 9.875 2H10.25C11.2446 2 12.1984 2.39509 12.9017 3.09835C13.6049 3.80161 14 4.75544 14 5.75V7.625C14 8.661 14.84 9.5 15.875 9.5H17.75C18.7446 9.5 19.6984 9.89509 20.4017 10.5983C21.1049 11.3016 21.5 12.2554 21.5 13.25V16.625C21.5 17.66 20.66 18.5 19.625 18.5H9.875C9.37772 18.5 8.9008 18.3025 8.54917 17.9508C8.19754 17.5992 8 17.1223 8 16.625V3.875Z" fill="white"/>
<path d="M15.5 5.74998C15.5018 4.48853 15.0475 3.26894 14.221 2.31598C15.8943 2.75594 17.4207 3.63245 18.6441 4.85587C19.8675 6.07928 20.744 7.60569 21.184 9.27898C20.231 8.45246 19.0115 7.99823 17.75 7.99998H15.875C15.7755 7.99998 15.6802 7.96047 15.6098 7.89014C15.5395 7.81982 15.5 7.72444 15.5 7.62498V5.74998ZM5.375 6.49998H6.5V16.625C6.5 17.5201 6.85558 18.3785 7.48851 19.0115C8.12145 19.6444 8.97989 20 9.875 20H17V21.125C17 22.16 16.16 23 15.125 23H5.375C4.87772 23 4.40081 22.8024 4.04917 22.4508C3.69754 22.0992 3.5 21.6223 3.5 21.125V8.37498C3.5 7.33898 4.34 6.49998 5.375 6.49998Z" fill="white"/>
</svg>
