<svg width="24" height="25" viewBox="0 0 24 25" fill="none" xmlns="http://www.w3.org/2000/svg">
<path d="M7.5 3.875C7.5 2.839 8.34 2 9.375 2H9.75C10.7446 2 11.6984 2.39509 12.4017 3.09835C13.1049 3.80161 13.5 4.75544 13.5 5.75V7.625C13.5 8.661 14.34 9.5 15.375 9.5H17.25C18.2446 9.5 19.1984 9.89509 19.9017 10.5983C20.6049 11.3016 21 12.2554 21 13.25V16.625C21 17.66 20.16 18.5 19.125 18.5H9.375C8.87772 18.5 8.4008 18.3025 8.04917 17.9508C7.69754 17.5992 7.5 17.1223 7.5 16.625V3.875Z" fill="black"/>
<path d="M15 5.74992C15.0018 4.48846 14.5475 3.26888 13.721 2.31592C15.3943 2.75588 16.9207 3.63239 18.1441 4.8558C19.3675 6.07922 20.244 7.60563 20.684 9.27892C19.731 8.4524 18.5115 7.99817 17.25 7.99992H15.375C15.2755 7.99992 15.1802 7.96041 15.1098 7.89008C15.0395 7.81976 15 7.72437 15 7.62492V5.74992ZM4.875 6.49992H6V16.6249C6 17.52 6.35558 18.3785 6.98851 19.0114C7.62145 19.6443 8.47989 19.9999 9.375 19.9999H16.5V21.1249C16.5 22.1599 15.66 22.9999 14.625 22.9999H4.875C4.37772 22.9999 3.90081 22.8024 3.54917 22.4507C3.19754 22.0991 3 21.6222 3 21.1249V8.37492C3 7.33892 3.84 6.49992 4.875 6.49992Z" fill="black"/>
</svg>
