<svg width="48" height="48" viewBox="0 0 48 48" fill="none" xmlns="http://www.w3.org/2000/svg">
<path opacity="0.35" d="M8 38V10C8 6.686 10.686 4 14 4H28L40 16V38C40 41.314 37.314 44 34 44H14C10.686 44 8 41.314 8 38Z" fill="white"/>
<path d="M28 12V4L40 16H32C29.79 16 28 14.21 28 12Z" fill="white"/>
<path d="M30 26H18C16.894 26 16 25.104 16 24C16 22.896 16.894 22 18 22H30C31.106 22 32 22.896 32 24C32 25.104 31.106 26 30 26Z" fill="white"/>
<path d="M26 34H18C16.894 34 16 33.104 16 32C16 30.896 16.894 30 18 30H26C27.106 30 28 30.896 28 32C28 33.104 27.106 34 26 34Z" fill="white"/>
</svg>
