<svg width="48" height="48" viewBox="0 0 48 48" fill="none" xmlns="http://www.w3.org/2000/svg">
<path d="M37 36C36.648 36 11.352 36 11 36C9.344 36 8 37.344 8 39C8 40.656 9.344 42 11 42C11.352 42 36.648 42 37 42C38.656 42 40 40.656 40 39C40 37.344 38.656 36 37 36Z" fill="white"/>
<path opacity="0.35" d="M36 36V35.95C36 33.648 34.776 31.552 32.836 30.312C29.906 28.438 26 25 26 20H32C34.21 20 36 18.21 36 16C36 14.74 35.408 13.556 34.4 12.8L28 8.00002V6.15802C28 4.94602 26.926 3.99002 25.726 4.16002C17.966 5.26402 12 11.936 12 20V36H36Z" fill="white"/>
</svg>
