<svg width="48" height="48" viewBox="0 0 48 48" fill="none" xmlns="http://www.w3.org/2000/svg">
<path d="M9 16H13C14.656 16 16 17.344 16 19V39C16 40.656 14.656 42 13 42H9C7.344 42 6 40.656 6 39V19C6 17.344 7.344 16 9 16Z" fill="white"/>
<path opacity="0.35" d="M32.686 42H20C17.79 42 16 40.21 16 38V18.304C16 16.822 16.548 15.392 17.54 14.29L22.45 8.83604L23.208 4.27204C23.55 2.21604 25.998 1.34204 27.59 2.68804C28.88 3.77804 30 5.39604 30 7.72804C30 11.26 28 16 28 16H38C41.314 16 44 18.686 44 22V24.664C44 25.544 43.806 26.414 43.432 27.21L38.118 38.546C37.13 40.654 35.014 42 32.686 42Z" fill="white"/>
</svg>
