<svg width="18" height="19" viewBox="0 0 18 19" fill="none" xmlns="http://www.w3.org/2000/svg">
<path d="M9 12.6304C10.6088 12.6304 12.0023 12.7641 12.9699 13.1068C13.4486 13.2764 13.7704 13.4792 13.9671 13.6939C14.1484 13.8917 14.25 14.1264 14.25 14.4492C14.25 14.7708 14.1483 15.0034 13.967 15.1994C13.7697 15.4128 13.4467 15.614 12.9662 15.7818C11.9955 16.1209 10.6011 16.25 9 16.25C7.39162 16.25 5.99806 16.1163 5.03041 15.7736C4.55158 15.6041 4.22973 15.4012 4.03294 15.1865C3.85164 14.9887 3.75 14.754 3.75 14.4312C3.75 14.1097 3.85166 13.8771 4.03301 13.681C4.23034 13.4677 4.55333 13.2664 5.0338 13.0986C6.00452 12.7596 7.3989 12.6304 9 12.6304ZM9 2.75C10.7905 2.75 12.2205 4.18008 12.2205 5.96829C12.2205 7.75668 10.7903 9.18733 9 9.18733C7.21038 9.18733 5.77951 7.75659 5.77951 5.96829C5.77951 4.18017 7.21019 2.75 9 2.75Z" stroke="#77818A" stroke-width="1.5"/>
</svg>
