<svg width="18" height="19" viewBox="0 0 18 19" fill="none" xmlns="http://www.w3.org/2000/svg">
<path d="M10.8137 4.61732C10.4567 4.55136 10.1288 4.77921 10.0608 5.12772C9.99283 5.47623 10.2214 5.8165 10.5687 5.8847C11.6144 6.08856 12.4218 6.898 12.6265 7.94728V7.94803C12.6847 8.25007 12.9507 8.46967 13.2569 8.46967C13.298 8.46967 13.3391 8.46593 13.3809 8.45843C13.7282 8.38873 13.9568 8.04921 13.8888 7.69995C13.5833 6.13278 12.377 4.92236 10.8137 4.61732Z" fill="#77818A"/>
<path d="M10.7669 2.00595C10.5996 1.98196 10.4315 2.03143 10.2978 2.13786C10.1604 2.24578 10.0745 2.40168 10.0558 2.57631C10.0162 2.92931 10.2709 3.24859 10.6235 3.28832C13.0547 3.55963 14.9444 5.45358 15.2178 7.8924C15.2544 8.21918 15.5285 8.46576 15.8557 8.46576C15.8803 8.46576 15.9042 8.46426 15.9289 8.46126C16.0999 8.44253 16.2523 8.35783 16.3599 8.22293C16.4667 8.08802 16.5152 7.92014 16.4958 7.7485C16.1552 4.70559 13.8002 2.34397 10.7669 2.00595Z" fill="#77818A"/>
<path d="M13.319 12.194C13.5514 12.4263 13.7711 12.6353 13.9673 12.8219L13.9793 12.8334C14.1817 13.0259 14.3538 13.1899 14.5026 13.3425C14.8137 13.6615 14.9373 13.8483 14.981 13.9804C15.0065 14.0574 15.0267 14.1698 14.8982 14.4211C14.7548 14.7015 14.457 15.0886 13.9017 15.6455C13.8613 15.6819 13.8259 15.7184 13.8093 15.7355C13.8073 15.7376 13.8055 15.7394 13.8041 15.7409L13.802 15.7431C13.7705 15.7753 13.7424 15.8041 13.7091 15.8357C13.6433 15.8984 13.5625 15.9666 13.4606 16.0296C13.267 16.1493 12.9571 16.2754 12.4654 16.2456C11.4367 16.1833 9.51459 15.4293 6.29371 12.2093C3.07244 8.98898 2.31736 7.06649 2.2545 6.03736C2.22445 5.54537 2.35036 5.23533 2.46992 5.0416C2.53284 4.93965 2.60104 4.8589 2.66359 4.79307C2.69527 4.75972 2.72413 4.73152 2.75644 4.69996L2.75829 4.69815C2.75978 4.6967 2.76159 4.69494 2.76371 4.69289C2.78077 4.67633 2.81716 4.64102 2.85342 4.60071C3.41207 4.04386 3.79991 3.74533 4.08065 3.60172C4.33221 3.47304 4.4439 3.49366 4.52 3.51896C4.65161 3.56273 4.83788 3.6865 5.15691 3.99842C5.30941 4.14752 5.47329 4.31981 5.66588 4.52252L5.6701 4.52696C5.85861 4.72537 6.07003 4.94789 6.30561 5.1834C6.67291 5.5506 6.69692 5.76153 6.6937 5.888C6.69137 5.97933 6.67029 6.08894 6.62226 6.24507C6.5983 6.32294 6.57036 6.40411 6.53733 6.49876C6.53405 6.50816 6.53071 6.51772 6.52733 6.52741C6.49795 6.6115 6.46484 6.70626 6.43354 6.80317C6.28919 7.25014 6.15204 7.83227 6.32646 8.54278C6.49693 9.23722 6.93997 9.95634 7.74355 10.7597C8.54711 11.563 9.26632 12.0059 9.9608 12.176C10.6714 12.3501 11.2534 12.2125 11.7002 12.0677C11.7972 12.0363 11.892 12.0031 11.9761 11.9736C11.9857 11.9703 11.9952 11.9669 12.0045 11.9637C12.0991 11.9306 12.1803 11.9025 12.2581 11.8785C12.4142 11.8303 12.5237 11.8092 12.6149 11.8068C12.7411 11.8034 12.9518 11.8271 13.319 12.194ZM13.319 12.194L13.8492 11.6636M13.319 12.194C13.319 12.194 13.3191 12.1941 13.3191 12.1941L13.8492 11.6636M13.8492 11.6636C14.075 11.8893 14.2889 12.0928 14.4862 12.2804C15.8941 13.6196 16.4552 14.1533 14.4144 16.1935L2.30548 4.08796C4.34737 2.04593 4.87876 2.60522 6.2116 4.00803C6.40125 4.20763 6.60711 4.42431 6.83587 4.653C7.68128 5.49817 7.47023 6.10237 7.23547 6.77448C6.94125 7.61678 6.60978 8.56573 8.27381 10.2293C9.93795 11.893 10.8864 11.5607 11.7283 11.2657C12.4 11.0304 13.0039 10.8189 13.8492 11.6636Z" stroke="#77818A" stroke-width="1.5"/>
</svg>
