<svg width="20" height="21" viewBox="0 0 20 21" fill="none" xmlns="http://www.w3.org/2000/svg">
<path fill-rule="evenodd" clip-rule="evenodd" d="M0.25 10.5C0.25 5.115 4.615 0.75 10 0.75C15.385 0.75 19.75 5.115 19.75 10.5C19.75 15.885 15.385 20.25 10 20.25C4.615 20.25 0.25 15.885 0.25 10.5ZM11.628 6.583C10.738 5.806 9.262 5.806 8.373 6.583C8.22329 6.71402 8.02766 6.78019 7.82915 6.76697C7.63064 6.75375 7.44552 6.66221 7.3145 6.5125C7.18348 6.36279 7.11731 6.16716 7.13053 5.96865C7.14375 5.77014 7.23529 5.58502 7.385 5.454C8.839 4.182 11.161 4.182 12.615 5.454C14.128 6.778 14.128 8.972 12.615 10.296C12.362 10.5166 12.0805 10.7023 11.778 10.848C11.102 11.176 10.75 11.622 10.75 12V12.75C10.75 12.9489 10.671 13.1397 10.5303 13.2803C10.3897 13.421 10.1989 13.5 10 13.5C9.80109 13.5 9.61032 13.421 9.46967 13.2803C9.32902 13.1397 9.25 12.9489 9.25 12.75V12C9.25 10.721 10.31 9.893 11.125 9.498C11.307 9.41 11.476 9.299 11.628 9.167C12.458 8.44 12.458 7.31 11.628 6.583ZM10 16.5C10.1989 16.5 10.3897 16.421 10.5303 16.2803C10.671 16.1397 10.75 15.9489 10.75 15.75C10.75 15.5511 10.671 15.3603 10.5303 15.2197C10.3897 15.079 10.1989 15 10 15C9.80109 15 9.61032 15.079 9.46967 15.2197C9.32902 15.3603 9.25 15.5511 9.25 15.75C9.25 15.9489 9.32902 16.1397 9.46967 16.2803C9.61032 16.421 9.80109 16.5 10 16.5Z" fill="black"/>
</svg>
