<svg width="24" height="24" viewBox="0 0 24 24" fill="none" xmlns="http://www.w3.org/2000/svg">
<path d="M12.4884 18.5334C12.1849 18.3635 11.8149 18.3635 11.5115 18.5334L6.83862 21.1491C6.09402 21.5659 5.20307 20.9186 5.36934 20.0816L6.41284 14.829C6.48061 14.4879 6.36628 14.1361 6.11093 13.9L2.17872 10.2639C1.55219 9.68457 1.89246 8.63716 2.73986 8.53666L8.0581 7.90592C8.40344 7.86496 8.7027 7.64754 8.84837 7.33176L11.0919 2.4684C11.4493 1.69358 12.5505 1.69358 12.908 2.4684L15.1515 7.33176C15.2971 7.64754 15.5964 7.86496 15.9417 7.90592L21.26 8.53666C22.1074 8.63716 22.4476 9.68457 21.8211 10.2639L17.8889 13.9C17.6336 14.1361 17.5192 14.4879 17.587 14.829L18.6305 20.0816C18.7968 20.9186 17.9058 21.5659 17.1612 21.1491L12.4884 18.5334Z" fill="black"/>
</svg>
