<svg width="20" height="21" viewBox="0 0 20 21" fill="none" xmlns="http://www.w3.org/2000/svg">
<path d="M9.99971 8.5C10.7954 8.5 11.5584 8.18393 12.121 7.62132C12.6836 7.05871 12.9997 6.29565 12.9997 5.5C12.9997 4.70435 12.6836 3.94129 12.121 3.37868C11.5584 2.81607 10.7954 2.5 9.99971 2.5C9.20406 2.5 8.441 2.81607 7.87839 3.37868C7.31578 3.94129 6.99971 4.70435 6.99971 5.5C6.99971 6.29565 7.31578 7.05871 7.87839 7.62132C8.441 8.18393 9.20406 8.5 9.99971 8.5ZM3.46471 14.993C3.37188 15.2411 3.36163 15.5126 3.43551 15.767C3.50938 16.0214 3.66342 16.2452 3.87471 16.405C5.62605 17.766 7.78169 18.5034 9.99971 18.5C12.3097 18.5 14.4377 17.716 16.1307 16.4C16.5607 16.067 16.7347 15.497 16.5387 14.99C16.0309 13.668 15.1343 12.5311 13.967 11.7292C12.7998 10.9274 11.4168 10.4983 10.0007 10.4986C8.58454 10.4989 7.20179 10.9287 6.03491 11.731C4.86802 12.5334 3.97187 13.6708 3.46471 14.993Z" fill="black"/>
</svg>
