<svg width="110" height="110" viewBox="0 0 110 110" fill="none" xmlns="http://www.w3.org/2000/svg">
<path d="M75.625 17.1875V75.625L55 65.3125L34.375 75.625V17.1875M75.625 17.1875H82.5C85.235 17.1875 87.8581 18.274 89.792 20.208C91.726 22.1419 92.8125 24.765 92.8125 27.5V82.5C92.8125 85.235 91.726 87.8581 89.792 89.792C87.8581 91.726 85.235 92.8125 82.5 92.8125H27.5C24.765 92.8125 22.1419 91.726 20.208 89.792C18.274 87.8581 17.1875 85.235 17.1875 82.5V27.5C17.1875 24.765 18.274 22.1419 20.208 20.208C22.1419 18.274 24.765 17.1875 27.5 17.1875H34.375M75.625 17.1875H34.375" stroke="black" stroke-width="5" stroke-linecap="round" stroke-linejoin="round"/>
<mask id="path-2-outside-1_2827_9843" maskUnits="userSpaceOnUse" x="31.375" y="14.1875" width="48" height="65" fill="black">
<rect fill="white" x="31.375" y="14.1875" width="48" height="65"/>
<path d="M75.625 17.1875V75.625L55 65.3125L34.375 75.625V17.1875M75.625 17.1875H34.375H75.625Z"/>
</mask>
<path d="M75.625 17.1875V75.625L55 65.3125L34.375 75.625V17.1875M75.625 17.1875H34.375H75.625Z" fill="#1B55C6"/>
<path d="M75.625 17.1875H78.625C78.625 15.5306 77.2819 14.1875 75.625 14.1875V17.1875ZM75.625 75.625L74.2834 78.3083C75.2133 78.7733 76.3177 78.7236 77.2022 78.177C78.0866 77.6303 78.625 76.6647 78.625 75.625H75.625ZM55 65.3125L56.3416 62.6292C55.4971 62.2069 54.5029 62.2069 53.6584 62.6292L55 65.3125ZM34.375 75.625H31.375C31.375 76.6647 31.9134 77.6303 32.7978 78.177C33.6823 78.7236 34.7867 78.7733 35.7166 78.3083L34.375 75.625ZM34.375 17.1875V14.1875C32.7181 14.1875 31.375 15.5306 31.375 17.1875H34.375ZM72.625 17.1875V75.625H78.625V17.1875H72.625ZM76.9666 72.9417L56.3416 62.6292L53.6584 67.9958L74.2834 78.3083L76.9666 72.9417ZM53.6584 62.6292L33.0334 72.9417L35.7166 78.3083L56.3416 67.9958L53.6584 62.6292ZM37.375 75.625V17.1875H31.375V75.625H37.375ZM75.625 14.1875H34.375V20.1875H75.625V14.1875Z" fill="#1B55C6" mask="url(#path-2-outside-1_2827_9843)"/>
</svg>
