<svg width="110" height="110" viewBox="0 0 110 110" fill="none" xmlns="http://www.w3.org/2000/svg">
<path d="M95.3987 33.9937C102.092 33.9937 107.518 28.5676 107.518 21.8743C107.518 15.1809 102.092 9.75488 95.3987 9.75488C88.7053 9.75488 83.2793 15.1809 83.2793 21.8743C83.2793 28.5676 88.7053 33.9937 95.3987 33.9937Z" fill="#1B55C6"/>
<path d="M87.318 90.5504C92.8929 90.5504 97.8214 86.0258 97.8214 80.8548V47.8093C97.8214 46.2742 96.3671 45.143 94.9128 45.4662C94.9128 45.4662 94.9128 45.4662 94.832 45.4662C93.7008 45.7086 92.9737 46.6782 92.9737 47.8093V80.8548C92.9737 83.1171 90.469 85.7026 87.318 85.7026H22.6812C19.5302 85.7026 17.0255 83.1979 17.0255 80.0469V29.9534C17.0255 26.8024 19.5302 24.2977 22.6812 24.2977H69.6236C70.9164 24.2977 72.0475 23.2473 72.0475 21.8738V21.793C72.0475 20.5003 70.9972 19.3691 69.6236 19.3691H22.6812C16.8639 19.4499 12.1777 24.1361 12.1777 29.9534V80.0469C12.1777 85.8642 16.8639 90.5504 22.6812 90.5504H87.318Z" fill="black"/>
<path d="M73.0988 49.9104C65.9887 55.8893 59.7674 59.0403 55.0005 59.0403C50.2335 59.0403 44.0122 55.8893 36.9022 49.9104C31.3273 45.2242 27.2875 40.4573 27.2875 40.3765C26.3987 39.3261 24.8636 39.2453 23.894 40.0533C22.8437 40.942 22.7629 42.4772 23.5709 43.4467C24.298 44.3355 40.942 63.8881 55.0005 63.8881C66.3119 63.8881 79.3201 51.2031 84.3294 45.8706C85.3798 44.7394 85.0566 42.9619 83.7638 42.2348H83.683C82.7135 41.6692 81.5015 41.8308 80.7744 42.6388C79.0777 44.4163 76.3306 47.1633 73.0988 49.9104Z" fill="black"/>
</svg>
